<?xml version="1.0" standalone="no"?>
<!DOCTYPE svg PUBLIC "-//W3C//DTD SVG 20010904//EN"
 "http://www.w3.org/TR/2001/REC-SVG-20010904/DTD/svg10.dtd">
<svg version="1.0" xmlns="http://www.w3.org/2000/svg"
 width="331.000000pt" height="331.000000pt" viewBox="0 0 331.000000 331.000000"
 preserveAspectRatio="xMidYMid meet">
<metadata>
Created by potrace 1.11, written by Peter Selinger 2001-2013
</metadata>
<g transform="translate(0.000000,331.000000) scale(0.100000,-0.100000)"
fill="#000000" stroke="none">
<path d="M1510 3294 c-14 -2 -52 -9 -85 -15 -151 -26 -396 -138 -504 -230
-236 -203 -373 -420 -428 -679 -23 -110 -24 -136 -27 -550 -5 -568 -25 -741
-113 -948 -38 -90 -38 -118 0 -156 26 -26 131 -41 211 -30 l46 7 0 -35 c0 -42
30 -73 88 -91 l41 -12 -50 -65 c-88 -116 -133 -231 -146 -372 -4 -47 -2 -72 7
-83 11 -13 137 -15 1094 -15 608 0 1087 4 1095 9 11 7 13 28 8 97 -6 106 -33
197 -82 278 -19 32 -35 72 -35 88 0 16 -4 37 -10 47 -8 16 -3 19 43 24 64 8
99 33 111 79 9 36 9 36 77 42 51 5 73 13 93 31 42 39 43 67 3 154 -90 196
-107 334 -117 941 -8 434 -11 495 -29 578 -68 307 -287 598 -568 755 -186 103
-343 146 -553 152 -80 2 -156 2 -170 -1z m358 -1884 c23 -6 42 -16 42 -22 0
-14 -60 -78 -72 -78 -15 0 -48 64 -48 93 0 22 4 27 18 23 9 -3 36 -10 60 -16z
m-337 -18 c-11 -37 -40 -92 -48 -92 -12 0 -73 64 -73 76 0 13 71 42 107 43 19
1 21 -2 14 -27z m941 -819 c54 -7 77 -26 84 -75 5 -30 2 -38 -25 -61 -38 -32
-95 -45 -117 -26 -29 24 -48 74 -48 127 l-1 53 30 -6 c17 -3 51 -9 77 -12z
m-366 -113 l72 -13 32 -61 c40 -75 37 -104 -16 -135 -50 -30 -88 -27 -112 7
-28 40 -122 218 -122 230 0 8 12 7 38 -2 20 -7 69 -19 108 -26z m-347 -17 c28
-24 163 -272 163 -300 1 -42 -19 -53 -92 -53 l-68 0 -71 128 c-39 71 -71 140
-71 154 0 29 21 51 70 72 44 19 44 19 69 -1z m-325 -159 c16 -6 106 -161 106
-183 0 -16 -184 -15 -197 2 -23 30 -45 98 -39 119 11 45 85 79 130 62z"/>
</g>
</svg>
